<svg width="70" height="41" viewBox="0 0 70 41" fill="none" xmlns="http://www.w3.org/2000/svg">
<path fill-rule="evenodd" clip-rule="evenodd" d="M19.965 11.1648C20.249 11.7838 20.393 12.4848 20.393 13.2498C20.393 13.9198 20.28 14.5608 20.058 15.1548C19.8278 15.7618 19.4897 16.3222 19.06 16.8088C18.6997 17.2221 18.3282 17.6256 17.946 18.0188C17.666 18.3048 17.384 18.5818 17.103 18.8448L3.34301 31.2308L3.08601 38.0138L29.297 38.1138C30.3061 38.8284 31.3747 39.455 32.491 39.9868L3.10801 40.1998C2.54501 40.1998 2.015 39.9798 1.618 39.5808C1.26107 39.2252 1.04386 38.7532 1.006 38.2508L1.00001 31.7828C0.99835 31.0545 1.28192 30.3546 1.79 29.8328L15.43 17.5528C15.767 17.2468 16.113 16.9128 16.456 16.5608C16.798 16.2088 17.147 15.8308 17.493 15.4348C17.766 15.1218 17.973 14.7808 18.108 14.4218C18.242 14.0628 18.31 13.6688 18.31 13.2498C18.31 12.7898 18.23 12.3818 18.073 12.0368C17.9138 11.6954 17.6743 11.3976 17.375 11.1688C17.0353 10.8992 16.6517 10.6902 16.241 10.5508C15.8069 10.409 15.3526 10.3388 14.896 10.3428C14.316 10.3428 13.801 10.4298 13.366 10.6028C12.9629 10.7602 12.6025 11.0103 12.314 11.3328C11.995 11.6858 11.742 12.0858 11.566 12.5108C11.349 13.3148 11.045 13.8908 10.68 14.2818C10.274 14.7158 9.79201 14.9218 9.26101 14.9538L3.84901 14.9458C3.52664 14.9451 3.20809 14.876 2.91437 14.7431C2.62066 14.6103 2.35847 14.4166 2.14509 14.175C1.93171 13.9333 1.77199 13.6492 1.67648 13.3413C1.58097 13.0334 1.55185 12.7088 1.59101 12.3888C1.65901 11.8348 1.747 11.2938 1.853 10.7788C2.083 9.6648 2.383 8.7258 2.747 7.9908C3.118 7.2368 3.55701 6.5348 4.05201 5.9038C4.54839 5.27032 5.11277 4.6932 5.73501 4.1828C6.35965 3.67203 7.03482 3.22638 7.75001 2.8528C8.46501 2.4788 9.243 2.1628 10.062 1.9148C10.869 1.6688 11.722 1.4828 12.594 1.3598C13.4927 1.23611 14.3989 1.17496 15.306 1.1768C16.173 1.1768 17.026 1.2388 17.842 1.3618C18.662 1.4848 19.467 1.6718 20.234 1.9198C21.01 2.1698 21.748 2.4848 22.426 2.8568C23.108 3.2318 23.749 3.6738 24.33 4.1708C24.92 4.6758 25.45 5.2508 25.91 5.8828C25.625 6.5608 25.248 7.0308 24.878 7.4998L24.236 7.1248C23.8709 6.62109 23.4481 6.16196 22.976 5.7568C22.497 5.34794 21.9773 4.98939 21.425 4.6868C20.8414 4.36917 20.229 4.10766 19.596 3.9058C18.9224 3.69007 18.2325 3.52921 17.533 3.4248C16.7957 3.31561 16.0513 3.26146 15.306 3.2628C14.471 3.2628 13.656 3.3178 12.883 3.4258C12.117 3.5338 11.371 3.6958 10.667 3.9108C9.972 4.1208 9.31501 4.3878 8.71401 4.7028C8.12492 5.01007 7.5687 5.37664 7.05401 5.7968C6.55201 6.2088 6.09401 6.6778 5.69001 7.1918C5.27304 7.72724 4.91246 8.3043 4.61401 8.9138C4.33301 9.4848 4.084 10.2758 3.894 11.2008C3.804 11.6358 3.728 12.0938 3.669 12.5628L9.087 12.8688C9.35 12.4458 9.467 12.1508 9.572 11.8868C9.909 11.0668 10.29 10.4648 10.769 9.9338C11.2722 9.37468 11.8983 8.93994 12.598 8.6638C13.277 8.3938 14.05 8.2558 14.896 8.2558C15.604 8.2558 16.28 8.3628 16.905 8.5738C17.5423 8.78935 18.1376 9.11309 18.665 9.5308C19.2222 9.96421 19.6679 10.5244 19.965 11.1648ZM20.395 23.1348C20.465 23.7448 20.56 24.3478 20.68 24.9408L20.808 25.5308L14.067 31.3408H23.109C23.449 31.9288 23.817 32.4978 24.211 33.0478L12.281 33.4278C11.9908 33.4282 11.7075 33.3393 11.4694 33.1733C11.2313 33.0074 11.05 32.7722 10.95 32.4998C10.8554 32.2471 10.8349 31.9725 10.8911 31.7085C10.9472 31.4446 11.0777 31.2021 11.267 31.0098L20.396 23.1348H20.395Z" fill="#00C5C6" stroke="#00C5C6" stroke-width="0.15" stroke-linejoin="round"/>
<path fill-rule="evenodd" clip-rule="evenodd" d="M55.545 34.8287C51.635 38.6037 46.551 40.4387 41.498 40.3557C36.446 40.2727 31.425 38.2707 27.642 34.3707C25.8396 32.5158 24.4222 30.3226 23.4714 27.9174C22.5205 25.5122 22.0551 22.9426 22.102 20.3567C22.1407 17.7701 22.6907 15.2168 23.7205 12.8437C24.7502 10.4706 26.2393 8.32477 28.102 6.52969C32.012 2.75569 37.096 0.919692 42.148 1.00269C47.2 1.08569 52.221 3.08769 56.004 6.98869C58.08 9.12313 59.6413 11.7033 60.569 14.5327H58.309C57.488 12.3327 56.209 10.2627 54.472 8.46969C51.098 4.99169 46.62 3.20569 42.114 3.13169C37.608 3.05769 33.074 4.69469 29.587 8.06069C27.926 9.66143 26.5982 11.575 25.68 13.6911C24.7618 15.8073 24.2714 18.0842 24.237 20.3907C24.1953 22.6968 24.6103 24.9883 25.4582 27.1333C26.306 29.2783 27.5699 31.2343 29.177 32.8887C32.55 36.3677 37.027 38.1527 41.534 38.2267C46.04 38.3017 50.574 36.6647 54.061 33.2987C55.9366 31.4927 57.3843 29.2899 58.298 26.8517H60.559C59.5624 29.8794 57.8412 32.6178 55.545 34.8287Z" fill="#00C5C6" stroke="#00C5C6" stroke-width="0.15" stroke-linejoin="round"/>
<path fill-rule="evenodd" clip-rule="evenodd" d="M50.868 30.0068C49.64 31.1929 48.1901 32.1252 46.6013 32.7504C45.0125 33.3755 43.316 33.6811 41.609 33.6498C39.9019 33.6251 38.2164 33.264 36.6491 32.587C35.0817 31.9101 33.6633 30.9306 32.475 29.7048C31.2869 28.482 30.3525 27.0363 29.7257 25.4508C29.0989 23.8653 28.7921 22.1714 28.823 20.4668C28.8484 18.7617 29.211 17.0785 29.8898 15.5141C30.5685 13.9497 31.5501 12.5351 32.778 11.3517C34.0061 10.1655 35.4562 9.23307 37.0452 8.60795C38.6341 7.98283 40.3308 7.67727 42.038 7.70875C45.368 7.76375 48.678 9.08275 51.171 11.6548C52.024 12.5348 52.728 13.5048 53.281 14.5328H50.782C49.7994 13.1067 48.4898 11.9365 46.9625 11.12C45.4352 10.3036 43.7346 9.86459 42.003 9.83975C40.5763 9.8136 39.1585 10.0691 37.8307 10.5916C36.5029 11.1141 35.2912 11.8934 34.265 12.8847C33.239 13.8735 32.4188 15.0555 31.8516 16.3626C31.2844 17.6696 30.9814 19.076 30.96 20.5008C30.9342 21.9252 31.1905 23.3406 31.7142 24.6656C32.2378 25.9905 33.0184 27.1988 34.011 28.2208C35.0039 29.2457 36.1893 30.0647 37.4993 30.6308C38.8093 31.197 40.2181 31.499 41.645 31.5198C43.4321 31.5528 45.1997 31.144 46.7908 30.3294C48.3818 29.5149 49.747 28.3199 50.765 26.8507H53.268C52.6349 28.0198 51.8254 29.0843 50.868 30.0068Z" fill="#00C5C6" stroke="#00C5C6" stroke-width="0.15" stroke-linejoin="round"/>
<path d="M39.753 24.1277V21.6707L42.447 17.1927H40.872L39.019 20.2737L37.167 17.1927H35.463L38.148 21.6507V24.1277H39.753ZM48.392 24.1277V22.8397H44.617V21.2347H47.837V19.9867H44.617V18.4807H48.263V17.1927H43.022V24.1277H48.392ZM50.373 24.1277L50.987 22.6417H54.207L54.822 24.1277H56.506L53.405 17.1927H51.82L48.728 24.1277H50.373ZM53.702 21.4227H51.502L52.602 18.7677L53.702 21.4227ZM58.804 24.1277V22.1967H60.28L61.618 24.1287H63.342L61.786 21.8987C62.2145 21.7234 62.5818 21.4257 62.842 21.0427C63.089 20.6697 63.213 20.2257 63.213 19.7097C63.213 19.1947 63.091 18.7497 62.846 18.3727C62.5901 17.9864 62.2269 17.6833 61.801 17.5007C61.349 17.2957 60.815 17.1937 60.201 17.1937H57.199V24.1287H58.804V24.1277ZM60.112 20.9177H58.804V18.5007H60.112C60.594 18.5007 60.961 18.6047 61.212 18.8127C61.462 19.0207 61.588 19.3197 61.588 19.7087C61.588 20.0917 61.463 20.3887 61.212 20.6007C60.961 20.8117 60.594 20.9177 60.112 20.9177ZM66.73 24.2477C67.364 24.2477 67.902 24.1507 68.345 23.9597C68.787 23.7677 69.119 23.5087 69.341 23.1817C69.561 22.8547 69.673 22.4927 69.673 22.0967C69.673 21.6347 69.552 21.2677 69.311 20.9967C69.0756 20.7301 68.7777 20.526 68.444 20.4027C68.0192 20.2513 67.5858 20.1254 67.146 20.0257C66.638 19.9137 66.259 19.7997 66.012 19.6847C65.764 19.5687 65.64 19.3917 65.64 19.1547C65.64 18.9167 65.747 18.7247 65.962 18.5797C66.177 18.4347 66.509 18.3617 66.958 18.3617C67.598 18.3617 68.239 18.5437 68.88 18.9067L69.375 17.6877C69.0312 17.4784 68.6566 17.3245 68.265 17.2317C67.8408 17.1261 67.4052 17.073 66.968 17.0737C66.334 17.0737 65.797 17.1697 65.358 17.3607C64.918 17.5527 64.59 17.8117 64.372 18.1387C64.155 18.4624 64.041 18.8441 64.045 19.2337C64.045 19.6957 64.165 20.0657 64.407 20.3437C64.647 20.6207 64.937 20.8217 65.274 20.9477C65.61 21.0727 66.044 21.1977 66.571 21.3237C66.915 21.4037 67.187 21.4757 67.389 21.5417C67.59 21.6077 67.755 21.6957 67.884 21.8047C67.9454 21.854 67.9947 21.9166 68.0281 21.9879C68.0616 22.0591 68.0783 22.137 68.077 22.2157C68.077 22.4407 67.968 22.6207 67.75 22.7557C67.533 22.8907 67.196 22.9587 66.74 22.9587C66.33 22.9587 65.92 22.8927 65.511 22.7607C65.1318 22.6437 64.7739 22.4665 64.451 22.2357L63.906 23.4447C64.216 23.6817 64.628 23.8747 65.14 24.0247C65.6568 24.1737 66.1922 24.2485 66.73 24.2467V24.2477Z" fill="#00C5C6"/>
</svg>
