<svg width="171" height="46" viewBox="0 0 171 46" fill="none" xmlns="http://www.w3.org/2000/svg">
<path d="M38.956 39.4974C29.847 48.3104 15.269 48.0704 6.45603 38.9614C-2.35797 29.8534 -2.11597 15.2714 6.99103 6.4564C16.1 -2.3576 30.678 -2.1166 39.491 6.9914C48.305 16.1004 48.064 30.6814 38.956 39.4974ZM8.60603 8.1244C0.418034 16.0484 0.202034 29.1574 8.12403 37.3474C16.046 45.5374 29.154 45.7524 37.344 37.8294C45.531 29.9044 45.747 16.7954 37.825 8.6064C29.902 0.4154 16.795 0.200399 8.60603 8.1244Z" fill="#00C5C6"/>
<path d="M13.7721 31.8805C12.6243 30.6956 11.7176 29.2991 11.1021 27.7685L8.30908 26.6455C8.9469 29.2242 10.2567 31.5877 12.1051 33.4955C13.9546 35.4107 16.28 36.7997 18.8431 37.5205L17.6671 34.6255C16.208 33.9636 14.8869 33.0323 13.7731 31.8805H13.7721Z" fill="#00C5C6"/>
<path d="M33.5771 11.2484L10.7331 19.2534C11.3585 17.1712 12.5079 15.2844 14.0711 13.7734C17.7461 10.2154 23.0211 9.30837 27.5161 11.0054L30.5881 9.90837C24.8821 6.58537 17.4311 7.29037 12.4571 12.1034C10.2093 14.2753 8.69464 17.0942 8.12408 20.1674L5.75108 20.9994C5.5297 21.077 5.33708 21.22 5.19863 21.4094C5.06018 21.5988 4.98241 21.8257 4.97559 22.0602C4.96876 22.2947 5.03321 22.5258 5.16041 22.7229C5.28761 22.92 5.4716 23.074 5.68808 23.1644L17.6241 28.1514L22.2141 40.2484C22.2973 40.4677 22.4451 40.6567 22.638 40.7903C22.8309 40.9239 23.0597 40.9959 23.2943 40.9968C23.529 40.9977 23.7583 40.9274 23.9522 40.7952C24.146 40.663 24.2952 40.4751 24.3801 40.2564L25.2901 37.9104C28.3798 37.4415 31.2463 36.0205 33.4901 33.8454C38.4741 29.0234 39.4181 21.5784 36.2631 15.7594L35.0741 18.8024C36.6361 23.3584 35.5591 28.6144 31.8761 32.1784C30.3146 33.6915 28.3909 34.7785 26.2891 35.3354L35.0431 12.7624C35.2071 12.3404 35.1091 11.8624 34.7951 11.5354C34.6405 11.3765 34.4437 11.2651 34.2279 11.2143C34.0122 11.1634 33.7864 11.1753 33.5771 11.2484ZM23.6381 35.7534L23.3111 36.5974L22.9961 35.7674L19.8881 27.5774L31.6111 15.7984L23.6381 35.7534ZM18.5081 26.0074L10.1921 22.5324L9.37408 22.1914L10.2281 21.8914L30.4321 14.5794L18.5081 26.0074Z" fill="#00C5C6"/>
<path d="M53.327 31.0784V13.2864H55.126V21.2594H57.118L62.708 13.2864H64.894L58.771 22.1564L64.894 31.0764H62.707L57.118 23.0564H55.149V31.0764H53.327V31.0784ZM66.959 16.0824V14.7694C66.959 14.3644 67.154 14.1614 67.543 14.1614H68.758C69.131 14.1614 69.317 14.3644 69.317 14.7694V16.0824C69.317 16.4554 69.131 16.6414 68.758 16.6414H67.543C67.154 16.6414 66.959 16.4554 66.959 16.0814V16.0824ZM67.202 31.0784V18.1724H69.001V31.0784H67.202ZM71.99 31.0784V18.1724H73.253L73.787 19.6784C73.835 19.6634 74.015 19.5614 74.321 19.3744C74.629 19.1884 74.819 19.0794 74.891 19.0474C74.965 19.0144 75.139 18.9224 75.414 18.7674C75.69 18.6144 75.884 18.5204 75.998 18.4874C76.111 18.4554 76.297 18.3904 76.556 18.2934C76.816 18.1954 77.026 18.1304 77.188 18.0984C77.636 18.0083 78.0912 17.9594 78.548 17.9524C79.779 17.9524 80.751 18.3584 81.465 19.1674C82.177 19.9784 82.535 20.9514 82.535 22.0844V31.0774H80.735V22.0844C80.735 21.3224 80.533 20.7444 80.129 20.3464C79.723 19.9504 79.205 19.7514 78.573 19.7514C77.942 19.7514 77.349 19.8164 76.8 19.9464C76.248 20.0764 75.807 20.2104 75.475 20.3484C75.143 20.4854 74.58 20.7494 73.785 21.1384V31.0784H71.991H71.99ZM84.918 28.2824C84.918 27.8294 85.04 27.4044 85.283 27.0064C85.3981 26.8137 85.5532 26.648 85.7378 26.5203C85.9223 26.3927 86.1321 26.3061 86.353 26.2664C85.413 25.6664 84.943 24.5484 84.943 22.9114C84.943 21.2744 85.31 20.0674 86.048 19.2904C86.785 18.5124 87.818 18.1224 89.146 18.1224H96.728V19.4834L94.759 19.9214C94.775 19.9544 94.832 20.0554 94.929 20.2254C95.027 20.3954 95.099 20.5334 95.148 20.6394C95.196 20.7444 95.253 20.9034 95.318 21.1134C95.448 21.5024 95.513 21.9804 95.513 22.5474C95.513 23.1154 95.46 23.6324 95.356 24.1024C95.25 24.5734 95.068 25.0794 94.808 25.6224C94.548 26.1654 94.137 26.6064 93.568 26.9464C93.001 27.2864 92.313 27.4574 91.504 27.4574H87.713C87.049 27.4574 86.716 27.7004 86.716 28.1874C86.716 28.7374 87.048 29.0134 87.713 29.0134H92.889C93.877 29.0134 94.647 29.3174 95.199 29.9244C95.749 30.5324 96.025 31.3464 96.025 32.3664V33.8974C96.025 34.7724 95.822 35.5674 95.418 36.2804C95.175 36.7004 94.794 37.0344 94.276 37.2774C93.757 37.5204 93.126 37.6414 92.38 37.6414H88.733C87.551 37.6414 86.607 37.3254 85.901 36.6934C85.197 36.0614 84.845 35.1294 84.845 33.8974V31.8324L85.817 30.2524C85.217 29.8304 84.917 29.1744 84.917 28.2824H84.918ZM87.736 30.8104C87.298 30.8104 86.935 30.7454 86.642 30.6154V33.8964C86.642 35.1924 87.339 35.8404 88.732 35.8404H92.377C93.607 35.8404 94.224 35.1924 94.224 33.8964V32.4864C94.224 31.8704 94.114 31.4364 93.896 31.1864C93.678 30.9364 93.236 30.8094 92.572 30.8094H87.736V30.8104ZM86.741 22.7174C86.741 23.3984 86.846 23.9654 87.057 24.4184C87.445 25.2454 88.086 25.6584 88.977 25.6584H91.358C92.233 25.6584 92.845 25.3634 93.193 24.7714C93.541 24.1794 93.716 23.5514 93.716 22.8874C93.716 21.9154 93.541 21.1784 93.193 20.6754C92.845 20.1734 92.225 19.9214 91.333 19.9214H89.146C87.543 19.9234 86.741 20.8544 86.741 22.7174ZM99.936 13.9424C100.309 13.7127 100.715 13.5408 101.14 13.4324C101.536 13.3344 101.852 13.2864 102.087 13.2864C102.322 13.2864 103.492 13.3154 105.598 13.3714C107.705 13.4284 109.276 13.5294 110.313 13.6754V16.4944H103.29C102.691 16.4944 102.318 16.6394 102.173 16.9324C102.075 17.1594 102.027 17.4664 102.027 17.8564V20.6274L109.22 20.8704V23.6904L102.027 23.9084V26.6784C102.027 27.2954 102.197 27.6684 102.538 27.7964C102.781 27.8944 103.112 27.9424 103.535 27.9424H110.315V30.7364C109.504 30.8494 107.504 30.9644 104.312 31.0764L102.733 31.1504H102.283C102.06 31.1476 101.837 31.1353 101.615 31.1134C101.34 31.0894 101.009 31.0044 100.619 30.8594C100.248 30.7238 99.9035 30.5264 99.599 30.2754C98.95 29.6914 98.626 28.7924 98.626 27.5774V16.9804C98.624 15.5074 99.061 14.4944 99.936 13.9424ZM111.916 24.6134C111.916 23.3174 112.016 22.2274 112.22 21.3444C112.422 20.4624 112.721 19.7894 113.119 19.3274C113.515 18.8664 113.957 18.5374 114.443 18.3434C114.929 18.1484 115.503 18.0534 116.169 18.0534C118.551 18.0534 120.526 18.3034 122.099 18.8064V20.9214C120.559 20.8234 119.332 20.7754 118.417 20.7754C117.502 20.7754 116.95 20.7924 116.764 20.8234C116.545 20.8683 116.335 20.9505 116.144 21.0664C115.917 21.1964 115.756 21.3994 115.658 21.6734C115.431 22.3374 115.318 23.2834 115.318 24.5054C115.318 25.7284 115.394 26.6084 115.549 27.1434C115.702 27.6774 115.929 28.0304 116.23 28.1994C116.529 28.3694 117.003 28.4544 117.652 28.4544C118.964 28.4544 120.285 28.3974 121.612 28.2844L122.269 28.2364V30.3754C121.523 30.7644 120.794 30.9914 120.082 31.0564C119.169 31.1465 118.253 31.1953 117.336 31.2024H116.17C114.89 31.2024 113.886 30.7724 113.157 29.9144C112.329 28.9564 111.916 27.1894 111.916 24.6144V24.6134ZM124.116 26.4854V12.0474H127.518V25.9494C127.518 26.8094 127.606 27.4084 127.785 27.7494C127.963 28.0894 128.247 28.3324 128.635 28.4774C129.607 28.8174 130.151 28.9884 130.264 28.9884V31.0784H127.444C126.343 31.0784 125.513 30.7264 124.954 30.0214C124.394 29.3164 124.116 28.1374 124.116 26.4854ZM131.527 16.2524V14.1124C131.527 13.6924 131.722 13.4814 132.11 13.4814H134.661C135.017 13.4814 135.195 13.6914 135.195 14.1134V16.2534C135.195 16.6254 135.017 16.8114 134.661 16.8114H132.111C131.955 16.8199 131.803 16.7675 131.685 16.6654C131.579 16.5684 131.527 16.4304 131.527 16.2524ZM131.647 31.0784V18.1724H135.05V31.0784H131.648H131.647ZM140.518 18.2214C141.161 18.1184 141.811 18.0699 142.462 18.0764C143.192 18.0764 143.758 18.0874 144.163 18.1124C144.568 18.1374 144.977 18.1854 145.39 18.2584C145.803 18.3304 146.139 18.4364 146.399 18.5734C146.657 18.7114 146.909 18.8974 147.152 19.1334C147.395 19.3684 147.582 19.6474 147.712 19.9714C148.002 20.7004 148.149 21.5384 148.149 22.4864C148.149 23.4334 148.011 24.1514 147.736 24.6364C147.202 25.5614 146.14 26.0224 144.552 26.0224H140.445C140.445 26.5904 140.494 27.0424 140.591 27.3834C140.688 27.7234 140.867 27.9704 141.125 28.1234C141.384 28.2794 141.655 28.3754 141.939 28.4154C142.222 28.4554 142.995 28.4764 144.259 28.4764C145.523 28.4764 146.738 28.3884 147.905 28.2084V30.5184C147.199 30.7883 146.459 30.9599 145.706 31.0284C144.969 31.0944 144.462 31.1344 144.186 31.1504C143.911 31.1654 143.571 31.1744 143.166 31.1744C142.633 31.1904 142.008 31.1994 141.296 31.1994C139.692 31.1994 138.582 30.6974 137.966 29.6934C137.35 28.6884 137.042 27.0554 137.042 24.7954C137.042 22.5354 137.289 20.9314 137.782 19.9824C138.278 19.0354 139.189 18.4474 140.518 18.2224V18.2214ZM144.746 22.5954C144.746 21.7854 144.636 21.2634 144.418 21.0274C144.2 20.7924 143.758 20.6754 143.094 20.6754C142.43 20.6754 141.972 20.6954 141.72 20.7364C141.47 20.7764 141.226 20.8914 140.991 21.0764C140.756 21.2644 140.607 21.5434 140.541 21.9154C140.478 22.2643 140.446 22.6179 140.444 22.9724V23.5674H143.676C144.39 23.5684 144.746 23.2434 144.746 22.5954ZM157.48 17.9534C160.055 17.9534 161.343 19.4604 161.343 22.4734V31.0784H157.941V22.4264C157.941 21.2594 157.463 20.6764 156.508 20.6764C155.859 20.6764 155.308 20.7624 154.855 20.9314C154.401 21.1014 153.915 21.3894 153.397 21.7944V31.0784H149.994V18.1724H152.716L153.396 19.5574C154.579 18.6984 155.519 18.2044 156.216 18.0744C156.632 17.9898 157.056 17.9496 157.48 17.9544V17.9534ZM162.608 20.7484V18.8524L164.698 18.1474L165.256 14.5494H168.1V18.1474H170.991V20.7474H168.1V25.9254C168.1 26.7994 168.188 27.4084 168.367 27.7484C168.545 28.0884 168.821 28.3324 169.194 28.4784C170.166 28.8184 170.709 28.9884 170.822 28.9884V31.0784H167.858C165.751 31.0784 164.698 29.5394 164.698 26.4604V20.7484H162.608Z" fill="#333333"/>
</svg>
