<svg width="39" height="39" viewBox="0 0 39 39" fill="none" xmlns="http://www.w3.org/2000/svg">
<path d="M21.957 0C22.321 0 22.6135 0.29381 22.6135 0.655222V5.46408C24.3581 5.8996 25.662 6.31171 26.6305 6.80703L30.043 3.39311C30.2991 3.137 30.7138 3.137 30.9699 3.39311L35.6057 8.02907C35.8618 8.28518 35.8618 8.69989 35.6057 8.956L32.1932 12.3673C32.6885 13.3371 33.1032 14.645 33.5374 16.3857H38.3448C38.7062 16.3857 39 16.6796 39 17.041V21.9577C39 22.3191 38.7062 22.613 38.3448 22.613H33.5387L33.4204 23.0784C33.0252 24.5955 32.643 25.7513 32.1932 26.6301L35.6057 30.0453C35.8618 30.3014 35.8618 30.7161 35.6057 30.9722L30.9725 35.6056C30.7164 35.8617 30.3017 35.8617 30.0456 35.6056L26.6292 32.193C25.6633 32.687 24.3633 33.1004 22.6135 33.5385V38.3448C22.6135 38.7062 22.3197 39 21.9583 39H17.0417C16.6803 39 16.3865 38.7062 16.3865 38.3448V33.5385C14.6367 33.1004 13.3354 32.687 12.3669 32.1917L8.957 35.6082C8.7009 35.8643 8.2849 35.8643 8.0288 35.6082L3.393 30.9735C3.1369 30.7174 3.1369 30.3014 3.393 30.0466L6.8068 26.6314C6.3128 25.6655 5.8994 24.3641 5.4613 22.6143H0.6552C0.2938 22.6143 0 22.3204 0 21.959V17.0423C0 16.6809 0.2938 16.387 0.6552 16.387H5.4613C5.8994 14.6385 6.3128 13.3358 6.8068 12.3699L3.393 8.9573C3.1369 8.70119 3.1369 8.28648 3.393 8.03037L8.0262 3.39311C8.2823 3.137 8.697 3.137 8.9531 3.39311L12.3682 6.80573C13.1586 6.40141 14.1752 6.0517 15.4752 5.69809L16.3852 5.46278V0.655222C16.3852 0.29381 16.679 0 17.0404 0H21.957ZM21.3031 1.31044H17.6969V5.9776C17.6969 6.28051 17.4889 6.54442 17.1951 6.61462C15.0293 7.13724 13.5187 7.61565 12.597 8.17987C12.3383 8.33718 12.0068 8.29688 11.791 8.08367L8.4929 4.78416L4.7827 8.49318L8.0834 11.7927C8.2979 12.0059 8.3369 12.3387 8.1796 12.5987C7.6908 13.3956 7.267 14.6346 6.8198 16.3636L6.6118 17.1957C6.5403 17.4908 6.2777 17.6975 5.9748 17.6975H1.3104V21.3038H5.9748C6.2777 21.3038 6.5403 21.5105 6.6118 21.8043C7.137 23.9754 7.6167 25.4834 8.1796 26.4039C8.3369 26.6626 8.2966 26.9954 8.0834 27.2099L4.7827 30.5094L8.4916 34.2171L11.7897 30.915C12.0042 30.7018 12.337 30.6628 12.5957 30.8201C13.3952 31.3089 14.6341 31.7341 16.3631 32.1813L17.1951 32.3893C17.4902 32.4608 17.6969 32.7234 17.6969 33.0263V37.6909H21.3031V33.0263C21.3031 32.7234 21.5098 32.4608 21.8036 32.3893C23.9746 31.8641 25.4813 31.3843 26.4004 30.8227C26.6591 30.6641 26.9919 30.7031 27.2064 30.9176L30.5084 34.2171L34.216 30.5094L30.9166 27.2086C30.7021 26.9941 30.6631 26.6626 30.8204 26.4026C31.3092 25.6057 31.733 24.3667 32.1802 22.6377L32.3882 21.8056C32.4597 21.5105 32.7223 21.3038 33.0252 21.3038H37.6896V17.6975H33.0226C32.721 17.6975 32.4571 17.4895 32.3856 17.1957C31.8656 15.0376 31.3846 13.5192 30.8204 12.5961C30.6631 12.3361 30.7034 12.0046 30.9166 11.7901L34.216 8.49318L30.5071 4.78416L27.2051 8.08367C26.9919 8.29818 26.6591 8.33718 26.4017 8.17987C25.6022 7.69106 24.3607 7.26594 22.6356 6.82133L21.8036 6.61462C21.5098 6.54442 21.3031 6.28051 21.3031 5.9776V1.31044ZM19.5 11.4716C23.933 11.4716 27.5301 15.0662 27.5301 19.5007C27.5301 23.9364 23.9343 27.5297 19.5 27.5297C15.0657 27.5297 11.4712 23.9364 11.4712 19.5007C11.4712 15.0675 15.0657 11.4716 19.5 11.4716ZM19.5 12.782C15.7898 12.782 12.7816 15.7903 12.7816 19.5007C12.7816 23.2123 15.7898 26.2193 19.5 26.2193C23.2102 26.2193 26.2184 23.2123 26.2184 19.5007C26.2184 15.7903 23.2102 12.782 19.5 12.782Z" fill="#02E4E5"/>
</svg>
