<svg id="Layer_1" data-name="Layer 1" xmlns="http://www.w3.org/2000/svg" viewBox="0 0 35.02 32.09"><defs><style>.cls-1{fill:#00c5c6;}.cls-2{fill:#fff;}</style></defs><ellipse class="cls-1" cx="17.51" cy="16.04" rx="17.51" ry="16.04"/><path class="cls-2" d="M12.2,1.73a.3.3,0,0,1,.3.31V4.26a8.57,8.57,0,0,1,1.85.62L15.93,3.3a.3.3,0,0,1,.43,0L18.5,5.44a.3.3,0,0,1,0,.43L16.92,7.44a8.89,8.89,0,0,1,.62,1.86h2.22a.29.29,0,0,1,.3.3v2.27a.3.3,0,0,1-.3.3H17.54l-.05.22A7.72,7.72,0,0,1,16.92,14L18.5,15.6a.3.3,0,0,1,0,.43l-2.14,2.14a.3.3,0,0,1-.43,0l-1.58-1.58a8.57,8.57,0,0,1-1.85.62v2.22a.29.29,0,0,1-.3.3H9.93a.29.29,0,0,1-.3-.3V17.21a8.89,8.89,0,0,1-1.86-.62L6.2,18.17a.3.3,0,0,1-.43,0L3.63,16a.3.3,0,0,1,0-.43L5.21,14a9.08,9.08,0,0,1-.63-1.85H2.37a.3.3,0,0,1-.31-.3V9.6a.3.3,0,0,1,.31-.3H4.58a9.43,9.43,0,0,1,.63-1.86L3.63,5.87a.3.3,0,0,1,0-.43L5.77,3.3a.3.3,0,0,1,.43,0L7.77,4.87a8.94,8.94,0,0,1,1.44-.51l.42-.11V2a.3.3,0,0,1,.3-.31Zm-.3.61H10.23V4.49a.31.31,0,0,1-.23.3,7.91,7.91,0,0,0-2.12.72.3.3,0,0,1-.37,0L6,3.94,4.27,5.65,5.79,7.18a.3.3,0,0,1,0,.37,6.76,6.76,0,0,0-.63,1.74l-.09.38a.31.31,0,0,1-.3.23H2.67v1.67H4.82a.31.31,0,0,1,.3.23,7.91,7.91,0,0,0,.72,2.12.3.3,0,0,1,0,.37L4.27,15.81,6,17.53,7.51,16a.3.3,0,0,1,.37,0,7.16,7.16,0,0,0,1.74.63l.38.09a.31.31,0,0,1,.23.3v2.15H11.9V17a.31.31,0,0,1,.23-.3A8,8,0,0,0,14.25,16a.3.3,0,0,1,.37,0l1.52,1.53,1.72-1.72-1.53-1.52a.3.3,0,0,1,0-.37,7.16,7.16,0,0,0,.63-1.74L17,11.8a.31.31,0,0,1,.3-.23h2.15V9.9H17.31a.3.3,0,0,1-.3-.23,7.91,7.91,0,0,0-.72-2.12.3.3,0,0,1,0-.37l1.53-1.53L16.14,3.94,14.62,5.46a.3.3,0,0,1-.37,0,6.76,6.76,0,0,0-1.74-.63l-.38-.09a.31.31,0,0,1-.23-.3ZM11.06,7a3.71,3.71,0,1,1-3.7,3.7A3.71,3.71,0,0,1,11.06,7Zm0,.6a3.1,3.1,0,1,0,3.1,3.1A3.1,3.1,0,0,0,11.06,7.63Z" transform="translate(5.96 4.94)"/></svg>