<svg width="18" height="18" viewBox="0 0 18 18" fill="none" xmlns="http://www.w3.org/2000/svg">
<path d="M10.134 0C10.302 0 10.437 0.135605 10.437 0.30241V2.52188C11.2422 2.72289 11.844 2.9131 12.291 3.1417L13.866 1.56605C13.9842 1.44785 14.1756 1.44785 14.2938 1.56605L16.4334 3.70572C16.5516 3.82393 16.5516 4.01533 16.4334 4.13354L14.8584 5.70799C15.087 6.1556 15.2784 6.75923 15.4788 7.56265H17.6976C17.8644 7.56265 18 7.69826 18 7.86506V10.1343C18 10.3011 17.8644 10.4367 17.6976 10.4367H15.4794L15.4248 10.6516C15.2424 11.3518 15.066 11.8852 14.8584 12.2908L16.4334 13.8671C16.5516 13.9853 16.5516 14.1767 16.4334 14.2949L14.295 16.4333C14.1768 16.5516 13.9854 16.5516 13.8672 16.4333L12.2904 14.8583C11.8446 15.0863 11.2446 15.2771 10.437 15.4793V17.6976C10.437 17.8644 10.3014 18 10.1346 18H7.8654C7.6986 18 7.563 17.8644 7.563 17.6976V15.4793C6.7554 15.2771 6.1548 15.0863 5.7078 14.8577L4.134 16.4345C4.0158 16.5528 3.8238 16.5528 3.7056 16.4345L1.566 14.2955C1.4478 14.1773 1.4478 13.9853 1.566 13.8677L3.1416 12.2914C2.9136 11.8456 2.7228 11.245 2.5206 10.4373H0.3024C0.1356 10.4373 0 10.3017 0 10.1349V7.86566C0 7.69886 0.1356 7.56325 0.3024 7.56325H2.5206C2.7228 6.75622 2.9136 6.15501 3.1416 5.70919L1.566 4.13414C1.4478 4.01593 1.4478 3.82453 1.566 3.70632L3.7044 1.56605C3.8226 1.44785 4.014 1.44785 4.1322 1.56605L5.7084 3.1411C6.0732 2.9545 6.5424 2.79309 7.1424 2.62989L7.5624 2.52128V0.30241C7.5624 0.135605 7.698 0 7.8648 0H10.134ZM9.8322 0.60482H8.1678V2.75889C8.1678 2.8987 8.0718 3.0205 7.9362 3.0529C6.9366 3.29411 6.2394 3.51492 5.814 3.77533C5.6946 3.84793 5.5416 3.82933 5.442 3.73092L3.9198 2.20807L2.2074 3.91993L3.7308 5.44278C3.8298 5.54118 3.8478 5.69479 3.7752 5.81479C3.5496 6.18261 3.354 6.75443 3.1476 7.55245L3.0516 7.93646C3.0186 8.07267 2.8974 8.16807 2.7576 8.16807H0.6048V9.83253H2.7576C2.8974 9.83253 3.0186 9.92793 3.0516 10.0635C3.294 11.0656 3.5154 11.7616 3.7752 12.1864C3.8478 12.3058 3.8292 12.4594 3.7308 12.5584L2.2074 14.0813L3.9192 15.7925L5.4414 14.2685C5.5404 14.1701 5.694 14.1521 5.8134 14.2247C6.1824 14.4503 6.7542 14.6465 7.5522 14.8529L7.9362 14.9489C8.0724 14.9819 8.1678 15.1031 8.1678 15.2429V17.3958H9.8322V15.2429C9.8322 15.1031 9.9276 14.9819 10.0632 14.9489C11.0652 14.7065 11.7606 14.4851 12.1848 14.2259C12.3042 14.1527 12.4578 14.1707 12.5568 14.2697L14.0808 15.7925L15.792 14.0813L14.2692 12.5578C14.1702 12.4588 14.1522 12.3058 14.2248 12.1858C14.4504 11.818 14.646 11.2462 14.8524 10.4481L14.9484 10.0641C14.9814 9.92793 15.1026 9.83253 15.2424 9.83253H17.3952V8.16807H15.2412C15.102 8.16807 14.9802 8.07207 14.9472 7.93646C14.7072 6.94043 14.4852 6.23961 14.2248 5.81359C14.1522 5.69359 14.1708 5.54058 14.2692 5.44158L15.792 3.91993L14.0802 2.20807L12.5562 3.73092C12.4578 3.82993 12.3042 3.84793 12.1854 3.77533C11.8164 3.54972 11.2434 3.35351 10.4472 3.1483L10.0632 3.0529C9.9276 3.0205 9.8322 2.8987 9.8322 2.75889V0.60482ZM9 5.29458C11.046 5.29458 12.7062 6.95363 12.7062 9.0003C12.7062 11.0476 11.0466 12.706 9 12.706C6.9534 12.706 5.2944 11.0476 5.2944 9.0003C5.2944 6.95423 6.9534 5.29458 9 5.29458ZM9 5.8994C7.2876 5.8994 5.8992 7.28784 5.8992 9.0003C5.8992 10.7134 7.2876 12.1012 9 12.1012C10.7124 12.1012 12.1008 10.7134 12.1008 9.0003C12.1008 7.28784 10.7124 5.8994 9 5.8994Z" fill="white"/>
</svg>
